<?xml version="1.0" encoding="utf-8"?>
<!-- Generator: Adobe Illustrator 26.3.1, SVG Export Plug-In . SVG Version: 6.00 Build 0)  -->
<svg version="1.1" id="圖層_1" xmlns="http://www.w3.org/2000/svg" xmlns:xlink="http://www.w3.org/1999/xlink" x="0px" y="0px"
	 viewBox="0 0 16 16" style="enable-background:new 0 0 16 16;" xml:space="preserve">
<style type="text/css">
	.st0{fill:#C5E6FF;}
	.st1{fill:#2182D8;}
</style>
<circle class="st0" cx="7.8" cy="7.5" r="7"/>
<g>
	<path class="st1" d="M8.3,8.3c0,0-0.1-0.1-0.2-0.1H8h0H7.9c-0.1,0-0.2,0-0.2,0.1l-1,7.6c-0.1,0.1,0,0.2,0.2,0.2H8h0h1.1
		c0.1,0,0.2-0.1,0.2-0.2L8.3,8.3z"/>
	<circle class="st1" cx="8" cy="7.4" r="1"/>
</g>
<g>
	<g>
		<g>
			<g>
				<path class="st1" d="M6.2,8.4c0,0.1,0,0.1-0.1,0.2C6,8.6,5.8,8.6,5.7,8.6C5,8,5,7.1,5.7,6.5c0.1-0.1,0.3-0.1,0.4,0
					c0.1,0.1,0.1,0.2,0,0.3c-0.5,0.4-0.5,1,0,1.4C6.1,8.3,6.2,8.3,6.2,8.4z"/>
			</g>
			<g>
				<path class="st1" d="M4.3,10.7c0,0.1,0,0.1-0.1,0.2c-0.1,0.1-0.3,0.1-0.4,0C2.7,10,2.1,8.8,2.1,7.5c0-1.3,0.6-2.5,1.7-3.4
					c0.1-0.1,0.3-0.1,0.4,0c0.1,0.1,0.1,0.2,0,0.3c-1,0.8-1.5,1.9-1.5,3c0,0,0,0,0,0c0,1.2,0.5,2.2,1.5,3
					C4.2,10.6,4.3,10.7,4.3,10.7z"/>
			</g>
			<g>
				<path class="st1" d="M5.2,9.6c0,0.1,0,0.1-0.1,0.2C5,9.8,4.9,9.8,4.7,9.7c-1.4-1.2-1.4-3.1,0-4.3c0.1-0.1,0.3-0.1,0.4,0
					c0.1,0.1,0.1,0.2,0,0.3c-1.2,1-1.2,2.7,0,3.7C5.2,9.4,5.2,9.5,5.2,9.6z"/>
			</g>
		</g>
	</g>
	<g>
		<g>
			<g>
				<path class="st1" d="M9.5,6.7c0-0.1,0-0.1,0.1-0.2c0.1-0.1,0.3-0.1,0.4,0c0.7,0.6,0.7,1.5,0,2c-0.1,0.1-0.3,0.1-0.4,0
					c-0.1-0.1-0.1-0.2,0-0.3c0.5-0.4,0.5-1,0-1.4C9.5,6.8,9.5,6.7,9.5,6.7z"/>
			</g>
			<g>
				<path class="st1" d="M11.4,4.3c0-0.1,0-0.1,0.1-0.2c0.1-0.1,0.3-0.1,0.4,0c1.1,0.9,1.7,2.1,1.7,3.4c0,1.3-0.6,2.5-1.7,3.4
					c-0.1,0.1-0.3,0.1-0.4,0c-0.1-0.1-0.1-0.2,0-0.3c1-0.8,1.5-1.9,1.5-3c0,0,0,0,0,0c0-1.2-0.5-2.2-1.5-3
					C11.4,4.5,11.4,4.4,11.4,4.3z"/>
			</g>
			<g>
				<path class="st1" d="M10.5,5.5c0-0.1,0-0.1,0.1-0.2c0.1-0.1,0.3-0.1,0.4,0c1.4,1.2,1.4,3.1,0,4.3c-0.1,0.1-0.3,0.1-0.4,0
					c-0.1-0.1-0.1-0.2,0-0.3c1.2-1,1.2-2.7,0-3.7C10.5,5.7,10.5,5.6,10.5,5.5z"/>
			</g>
		</g>
	</g>
</g>
</svg>
