<?xml version="1.0" encoding="utf-8"?>
<!-- Generator: Adobe Illustrator 26.3.1, SVG Export Plug-In . SVG Version: 6.00 Build 0)  -->
<svg version="1.1" id="圖層_1" xmlns="http://www.w3.org/2000/svg" xmlns:xlink="http://www.w3.org/1999/xlink" x="0px" y="0px"
	 viewBox="0 0 15.7 23.8" style="enable-background:new 0 0 15.7 23.8;" xml:space="preserve">
<style type="text/css">
	.st0{fill:#696D70;}
	.st1{fill:#E6F3FF;}
	.st2{fill:#FFFFFF;}
	.st3{fill:none;stroke:#FFFFFF;stroke-width:0.75;stroke-linecap:round;stroke-linejoin:round;stroke-miterlimit:10;}
	.st4{clip-path:url(#SVGID_00000155146520851380105310000012213310125864617124_);fill:#CCDDEA;}
</style>
<path class="st0" d="M11,17.5H4.7c-0.3,0-0.6-0.2-0.6-0.6V6.2c0-0.3,0.2-0.6,0.6-0.6H11c0.3,0,0.6,0.2,0.6,0.6V17
	C11.6,17.3,11.3,17.5,11,17.5z"/>
<path class="st1" d="M10.5,16.7H5.2c-0.2,0-0.4-0.2-0.4-0.4V7.7c0-0.2,0.2-0.4,0.4-0.4h5.2c0.2,0,0.4,0.2,0.4,0.4v8.6
	C10.9,16.5,10.7,16.7,10.5,16.7z"/>
<circle class="st2" cx="5.8" cy="6.5" r="0.3"/>
<line class="st3" x1="7" y1="6.5" x2="10" y2="6.5"/>
<g>
	<g>
		<defs>
			<polygon id="SVGID_1_" points="9.8,7 5.4,17.3 11.2,17.3 11.2,7.3 			"/>
		</defs>
		<clipPath id="SVGID_00000126310108152674499810000012141019491738652842_">
			<use xlink:href="#SVGID_1_"  style="overflow:visible;"/>
		</clipPath>
		<path style="clip-path:url(#SVGID_00000126310108152674499810000012141019491738652842_);fill:#CCDDEA;" d="M10.5,16.7H5.2
			c-0.2,0-0.4-0.2-0.4-0.4V7.7c0-0.2,0.2-0.4,0.4-0.4h5.2c0.2,0,0.4,0.2,0.4,0.4v8.6C10.9,16.5,10.7,16.7,10.5,16.7z"/>
	</g>
</g>
</svg>
