<?xml version="1.0" encoding="utf-8"?>
<!-- Generator: Adobe Illustrator 26.3.1, SVG Export Plug-In . SVG Version: 6.00 Build 0)  -->
<svg version="1.1" id="圖層_1" xmlns="http://www.w3.org/2000/svg" xmlns:xlink="http://www.w3.org/1999/xlink" x="0px" y="0px"
	 viewBox="0 0 16 16" style="enable-background:new 0 0 16 16;" xml:space="preserve">
<style type="text/css">
	.st0{fill:#FFEAC5;}
	.st1{fill:#F48438;}
</style>
<g>
	<circle class="st0" cx="8" cy="7.4" r="7"/>
	<g>
		<path class="st1" d="M8.6,8.2c0,0-0.1-0.1-0.2-0.1H8.2l0,0H8.1c-0.1,0-0.2,0-0.2,0.1l-1,7.6c-0.1,0.1,0,0.2,0.2,0.2h1.1l0,0h1.1
			c0.1,0,0.2-0.1,0.2-0.2L8.6,8.2z"/>
		<circle class="st1" cx="8.2" cy="7.3" r="1"/>
	</g>
	<g>
		<g>
			<g>
				<g>
					<path class="st1" d="M6.4,8.3c0,0.1,0,0.1-0.1,0.2c-0.1,0-0.3,0-0.4-0.1c-0.7-0.6-0.7-1.5,0-2c0.1-0.1,0.3-0.1,0.4,0
						s0.1,0.2,0,0.3c-0.5,0.4-0.5,1,0,1.4C6.4,8.2,6.4,8.2,6.4,8.3z"/>
				</g>
				<g>
					<path class="st1" d="M4.5,10.6c0,0.1,0,0.1-0.1,0.2c-0.1,0.1-0.3,0.1-0.4,0C2.9,9.9,2.3,8.7,2.3,7.4S2.9,4.9,4,4
						c0.1-0.1,0.3-0.1,0.4,0s0.1,0.2,0,0.3c-1,0.8-1.5,1.9-1.5,3l0,0c0,1.2,0.5,2.2,1.5,3C4.5,10.5,4.5,10.6,4.5,10.6z"/>
				</g>
				<g>
					<path class="st1" d="M5.4,9.4c0,0.1,0,0.1-0.1,0.2C5.2,9.7,5.1,9.7,5,9.6C3.5,8.4,3.5,6.5,5,5.3c0.1-0.1,0.3-0.1,0.4,0
						s0.1,0.2,0,0.3C4.2,6.6,4.2,8.3,5.4,9.4L5.4,9.4z"/>
				</g>
			</g>
		</g>
		<g>
			<g>
				<g>
					<path class="st1" d="M9.7,6.6c0-0.1,0-0.1,0.1-0.2s0.3-0.1,0.4,0c0.7,0.6,0.7,1.5,0,2c-0.1,0.1-0.3,0.1-0.4,0
						c-0.1-0.1-0.1-0.2,0-0.3c0.5-0.4,0.5-1,0-1.4C9.7,6.7,9.7,6.6,9.7,6.6z"/>
				</g>
				<g>
					<path class="st1" d="M11.6,4.2c0-0.1,0-0.1,0.1-0.2s0.3-0.1,0.4,0c1.1,0.9,1.7,2.1,1.7,3.4s-0.6,2.5-1.7,3.4
						c-0.1,0.1-0.3,0.1-0.4,0c-0.1-0.1-0.1-0.2,0-0.3c1-0.8,1.5-1.9,1.5-3l0,0c0-1.2-0.5-2.2-1.5-3C11.6,4.3,11.6,4.3,11.6,4.2z"/>
				</g>
				<g>
					<path class="st1" d="M10.7,5.4c0-0.1,0-0.1,0.1-0.2s0.3-0.1,0.4,0c1.4,1.2,1.4,3.1,0,4.3c-0.1,0.1-0.3,0.1-0.4,0
						c-0.1-0.1-0.1-0.2,0-0.3c1.2-1,1.2-2.7,0-3.7C10.7,5.5,10.7,5.5,10.7,5.4z"/>
				</g>
			</g>
		</g>
	</g>
</g>
</svg>
