<?xml version="1.0" encoding="utf-8"?>
<!-- Generator: Adobe Illustrator 26.3.1, SVG Export Plug-In . SVG Version: 6.00 Build 0)  -->
<svg version="1.1" id="圖層_1" xmlns="http://www.w3.org/2000/svg" xmlns:xlink="http://www.w3.org/1999/xlink" x="0px" y="0px"
	 viewBox="0 0 16 16" style="enable-background:new 0 0 16 16;" xml:space="preserve">
<style type="text/css">
	.st0{fill:#FFCCE1;}
	.st1{fill:#FF7BA1;}
</style>
<g>
	<circle class="st0" cx="8.1" cy="7.4" r="7"/>
	<g>
		<path class="st1" d="M8.7,8.2c0,0-0.1-0.1-0.2-0.1H8.4l0,0H8.2C8.1,8.1,8,8.1,8,8.2l-1,7.6C6.9,15.9,7,16,7.2,16h1.1l0,0h1.1
			c0.1,0,0.2-0.1,0.2-0.2L8.7,8.2z"/>
		<circle class="st1" cx="8.4" cy="7.3" r="1"/>
	</g>
	<g>
		<g>
			<g>
				<g>
					<path class="st1" d="M6.5,8.3c0,0.1,0,0.1-0.1,0.2C6.3,8.6,6.1,8.6,6,8.5C5.3,7.9,5.3,7,6,6.5c0.1-0.1,0.3-0.1,0.4,0
						s0.1,0.2,0,0.3C6,7.1,6,7.7,6.4,8.1C6.5,8.1,6.5,8.2,6.5,8.3z"/>
				</g>
				<g>
					<path class="st1" d="M4.6,10.6c0,0.1,0,0.1-0.1,0.2c-0.1,0.1-0.3,0.1-0.4,0C3,9.9,2.4,8.7,2.4,7.4S3,4.9,4.1,4
						c0.1-0.1,0.3-0.1,0.4,0s0.1,0.2,0,0.3C3.5,5.2,3,6.3,3,7.4l0,0c0,1.2,0.5,2.2,1.5,3C4.6,10.5,4.6,10.6,4.6,10.6z"/>
				</g>
				<g>
					<path class="st1" d="M5.6,9.4c0,0.1,0,0.1-0.1,0.2c-0.1,0.1-0.3,0.1-0.4,0c-1.4-1.2-1.4-3.1,0-4.3c0.1-0.1,0.3-0.1,0.4,0
						s0.1,0.2,0,0.3c-1.2,1-1.2,2.7,0,3.7L5.6,9.4z"/>
				</g>
			</g>
		</g>
		<g>
			<g>
				<g>
					<path class="st1" d="M9.8,6.6c0-0.1,0-0.1,0.1-0.2s0.3-0.1,0.4,0c0.7,0.6,0.7,1.5,0,2c-0.1,0.1-0.3,0.1-0.4,0
						c-0.1-0.1-0.1-0.2,0-0.3c0.5-0.4,0.5-1,0-1.4C9.9,6.7,9.8,6.6,9.8,6.6z"/>
				</g>
				<g>
					<path class="st1" d="M11.8,4.2c0-0.1,0-0.1,0.1-0.2s0.3-0.1,0.4,0C13.4,4.9,14,6.1,14,7.4s-0.6,2.5-1.7,3.4
						c-0.1,0.1-0.3,0.1-0.4,0c-0.1-0.1-0.1-0.2,0-0.3c1-0.8,1.5-1.9,1.5-3l0,0c0-1.2-0.5-2.2-1.5-3C11.8,4.3,11.8,4.3,11.8,4.2z"/>
				</g>
				<g>
					<path class="st1" d="M10.8,5.4c0-0.1,0-0.1,0.1-0.2s0.3-0.1,0.4,0c1.4,1.2,1.4,3.1,0,4.3c-0.1,0.1-0.3,0.1-0.4,0
						c-0.1-0.1-0.1-0.2,0-0.3c1.2-1,1.2-2.7,0-3.7C10.8,5.5,10.8,5.5,10.8,5.4z"/>
				</g>
			</g>
		</g>
	</g>
</g>
</svg>
