<?xml version="1.0" encoding="utf-8"?>
<!-- Generator: Adobe Illustrator 26.3.1, SVG Export Plug-In . SVG Version: 6.00 Build 0)  -->
<svg version="1.1" id="圖層_1" xmlns="http://www.w3.org/2000/svg" xmlns:xlink="http://www.w3.org/1999/xlink" x="0px" y="0px"
	 viewBox="0 0 16 16" style="enable-background:new 0 0 16 16;" xml:space="preserve">
<style type="text/css">
	.st0{fill:#CFD0D1;}
	.st1{fill:#777777;}
	.st2{fill:#FFFFFF;}
</style>
<circle class="st0" cx="7.8" cy="7.5" r="7"/>
<g>
	<path class="st1" d="M8.3,8.3c0,0-0.1-0.1-0.2-0.1H8l0,0H7.9c-0.1,0-0.2,0-0.2,0.1l-1,7.6c-0.1,0.1,0,0.2,0.2,0.2H8l0,0h1.1
		c0.1,0,0.2-0.1,0.2-0.2L8.3,8.3z"/>
	<circle class="st1" cx="8" cy="7.4" r="1"/>
</g>
<g>
	<g>
		<g>
			<g>
				<path class="st2" d="M6.2,8.4c0,0.1,0,0.1-0.1,0.2c-0.1,0-0.3,0-0.4,0C5,8,5,7.1,5.7,6.5c0.1-0.1,0.3-0.1,0.4,0s0.1,0.2,0,0.3
					c-0.5,0.4-0.5,1,0,1.4C6.1,8.3,6.2,8.3,6.2,8.4z"/>
			</g>
			<g>
				<path class="st2" d="M4.3,10.7c0,0.1,0,0.1-0.1,0.2c-0.1,0.1-0.3,0.1-0.4,0C2.7,10,2.1,8.8,2.1,7.5S2.7,5,3.8,4.1
					C3.9,4,4.1,4,4.2,4.1s0.1,0.2,0,0.3c-1,0.8-1.5,1.9-1.5,3l0,0c0,1.2,0.5,2.2,1.5,3C4.2,10.6,4.3,10.7,4.3,10.7z"/>
			</g>
			<g>
				<path class="st2" d="M5.2,9.6c0,0.1,0,0.1-0.1,0.2c-0.1,0-0.2,0-0.4-0.1c-1.4-1.2-1.4-3.1,0-4.3c0.1-0.1,0.3-0.1,0.4,0
					s0.1,0.2,0,0.3c-1.2,1-1.2,2.7,0,3.7C5.2,9.4,5.2,9.5,5.2,9.6z"/>
			</g>
		</g>
	</g>
	<g>
		<g>
			<g>
				<path class="st2" d="M9.5,6.7c0-0.1,0-0.1,0.1-0.2s0.3-0.1,0.4,0c0.7,0.6,0.7,1.5,0,2c-0.1,0.1-0.3,0.1-0.4,0
					c-0.1-0.1-0.1-0.2,0-0.3c0.5-0.4,0.5-1,0-1.4C9.5,6.8,9.5,6.7,9.5,6.7z"/>
			</g>
			<g>
				<path class="st2" d="M11.4,4.3c0-0.1,0-0.1,0.1-0.2s0.3-0.1,0.4,0C13,5,13.6,6.2,13.6,7.5S13,10,11.9,10.9
					c-0.1,0.1-0.3,0.1-0.4,0c-0.1-0.1-0.1-0.2,0-0.3c1-0.8,1.5-1.9,1.5-3l0,0c0-1.2-0.5-2.2-1.5-3C11.4,4.5,11.4,4.4,11.4,4.3z"/>
			</g>
			<g>
				<path class="st2" d="M10.5,5.5c0-0.1,0-0.1,0.1-0.2s0.3-0.1,0.4,0c1.4,1.2,1.4,3.1,0,4.3c-0.1,0.1-0.3,0.1-0.4,0
					c-0.1-0.1-0.1-0.2,0-0.3c1.2-1,1.2-2.7,0-3.7C10.5,5.7,10.5,5.6,10.5,5.5z"/>
			</g>
		</g>
	</g>
</g>
</svg>
